<svg width="25" height="79" fill="none" xmlns="http://www.w3.org/2000/svg"><path transform="rotate(-90 0 79)" fill="url(#paint0_linear)" d="M0 79h79v25H0z"/><path d="M17 55.38v1.888l-1.951.75v3.433l1.951.71V64l-8.59-3.346V58.82L17 55.38zm-3.398 3.194l-3.188 1.184 3.188 1.16v-2.344zM8.41 53.226V51.49h3.656c-.039-.386-.138-.648-.298-.785-.16-.137-.606-.347-1.336-.633-.93-.359-1.508-.72-1.735-1.084-.226-.359-.34-.939-.34-1.74l-.005-.252h1.283l-.006.246c0 .356.045.616.135.78a.978.978 0 00.398.398c.18.102.549.252 1.107.451.297.106.546.221.745.346.199.121.386.338.562.65.11-.386.33-.705.662-.955.332-.254.801-.531 1.407-.832L17 46.91v2.04l-2.22 1.025a5.255 5.255 0 00-.182.1c-.032.019-.166.091-.405.216-.421.223-.685.407-.79.551-.106.14-.16.357-.165.65H17v1.735H8.41zm0-8.524v-1.735h7.149v-3.363H8.41V37.87h7.149v-.715h3.316v1.441H17v6.106H8.41zm0-9.96v-1.623h5.719l-5.719-3.48v-1.73H17v1.624h-5.607L17 33.007v1.735H8.41zM17 19.802h-3.586v.351c0 .547.082.934.246 1.16.164.223.655.606 1.47 1.149L17 23.716v2.074l-1.676-1.049c-.664-.414-1.129-.744-1.394-.99a3.747 3.747 0 01-.721-.926c-.125.8-.402 1.379-.832 1.734-.434.356-.951.534-1.553.534a2.49 2.49 0 01-1.388-.393 1.92 1.92 0 01-.815-1.043c-.14-.434-.21-1.08-.21-1.94v-3.65H17v1.735zm-7.137 0v1.353c0 .688.016 1.14.047 1.36.031.214.137.4.317.556.18.156.414.234.703.234.3 0 .54-.074.72-.222a.975.975 0 00.329-.574c.043-.235.064-.71.064-1.424v-1.283h-2.18z" fill="#fff"/><defs><linearGradient id="paint0_linear" x1="0" y1="94.53" x2="78.727" y2="99.304" gradientUnits="userSpaceOnUse"><stop stop-color="#9710E9"/><stop offset="1" stop-color="#FD8D43"/></linearGradient></defs></svg>