<svg width="60" height="60" fill="none" xmlns="http://www.w3.org/2000/svg"><circle cx="30" cy="30" r="30" fill="#FF7931"/><path d="M37.733 14.227s0 1.423.556 2.412c.371.619 2.289 3.34 3.464 4.763.743.866.557 1.732.557 1.918v23.938c0 .556-.495.928-1.175.928H18.186c-.618 0-.866-.371-.866-.928V26.845c0-1.917.619-3.71 2.474-4.948l11.196-5.32c.928-.433 1.547-1.237 1.609-2.103v-.309h5.134v.062z" stroke="#fff" stroke-width="3" stroke-miterlimit="10"/><path d="M37.732 14.536h-5.567a.62.62 0 01-.618-.618v-2.784a.62.62 0 01.618-.618h5.567a.62.62 0 01.619.618v2.784c0 .309-.31.618-.619.618zM26.6 38.041h12.37M26.6 42.99h8.04" stroke="#fff" stroke-width="3" stroke-miterlimit="10"/></svg>