<svg width="60" height="60" fill="none" xmlns="http://www.w3.org/2000/svg"><circle cx="30" cy="30" r="30" fill="#FF7931"/><path stroke="#fff" stroke-width="2" d="M14.608 26.979H46.01v16.557H14.608z"/><rect x="12.134" y="20.794" width="36.35" height="2.33" rx="1.165" stroke="#fff" stroke-width="2"/><path stroke="#fff" stroke-width="1.856" d="M21.34 15.155h17.938v1.856H21.34z"/><path d="M15.464 15.773a1.546 1.546 0 113.093 0v2.165h-3.093v-2.165zm26.598.309a1.856 1.856 0 113.711 0v1.856h-3.711v-1.855z" fill="#fff"/><rect x="37.573" y="31.599" width="1.109" height="7.023" rx=".554" fill="#fff"/><rect x="34.617" y="35.665" width="1.109" height="7.023" rx=".554" transform="rotate(-90 34.617 35.665)" fill="#fff"/><rect x="19.175" y="35.877" width="1.237" height="6.804" rx=".619" transform="rotate(-90 19.175 35.877)" fill="#fff"/></svg>