<svg width="60" height="60" fill="none" xmlns="http://www.w3.org/2000/svg"><circle cx="30" cy="30" r="30" fill="#FF7931"/><path stroke="#fff" stroke-width="2" d="M17.701 29.454h25.216v3.567H17.701zm8.385-3.856l1.627-5.423h5.527l1.355 5.423h-8.509zm.036 11.278l1.572 4.804h5.23l1.573-4.804h-8.375z"/><mask id="a" fill="#fff"><path d="M27.252 4.948h6.114v12.228h-6.114V4.948z"/></mask><path d="M27.252 4.948v-2h-2v2h2zm6.114 0h2v-2h-2v2zm0 12.228v2h2v-2h-2zm-6.114 0h-2v2h2v-2zm0-10.228h6.114v-4h-6.114v4zm4.114-2v12.228h4V4.948h-4zm2 10.228h-6.114v4h6.114v-4zm-4.114 2V4.948h-4v12.228h4z" fill="#fff" mask="url(#a)"/><mask id="b" fill="#fff"><path d="M27.252 44.424h6.114v10.7h-6.114v-10.7z"/></mask><path d="M27.252 44.424v-2h-2v2h2zm6.114 0h2v-2h-2v2zm0 10.7v2h2v-2h-2zm-6.114 0h-2v2h2v-2zm0-8.7h6.114v-4h-6.114v4zm4.114-2v10.7h4v-10.7h-4zm2 8.7h-6.114v4h6.114v-4zm-4.114 2v-10.7h-4v10.7h4z" fill="#fff" mask="url(#b)"/><circle cx="30.309" cy="8.66" r="1.237" fill="#fff"/><circle cx="30.309" cy="51.34" r="1.237" fill="#fff"/></svg>