<svg width="60" height="60" fill="none" xmlns="http://www.w3.org/2000/svg"><circle cx="30" cy="30" r="30" fill="#FF7931"/><path d="M30.618 50.103c10.761 0 19.485-8.723 19.485-19.484 0-10.761-8.724-19.485-19.485-19.485-10.76 0-19.484 8.724-19.484 19.485 0 10.76 8.723 19.484 19.484 19.484z" stroke="#fff" stroke-width="2" stroke-miterlimit="10"/><path d="M30.62 45.59c8.268 0 14.972-6.702 14.972-14.971 0-8.27-6.704-14.973-14.973-14.973-8.269 0-14.972 6.704-14.972 14.973 0 8.269 6.703 14.972 14.972 14.972z" stroke="#fff" stroke-width="2" stroke-miterlimit="10"/><path d="M30.619 36.703a6.085 6.085 0 100-12.17 6.085 6.085 0 000 12.17z" stroke="#fff" stroke-width="2" stroke-miterlimit="10"/><path d="M30.619 33.9a3.35 3.35 0 100-6.7 3.35 3.35 0 000 6.7zm-4.717-17.502c.137.616.273 1.3.273 1.915a7.79 7.79 0 01-7.793 7.794c-.684 0-1.3-.069-1.915-.274m18.87-9.435c-.137.616-.274 1.3-.274 1.915a7.79 7.79 0 007.794 7.794c.684 0 1.299-.069 1.914-.274M25.902 44.839c.137-.615.273-1.299.273-1.914a7.79 7.79 0 00-7.793-7.794c-.684 0-1.3.068-1.915.273m18.87 9.435c-.137-.615-.274-1.299-.274-1.914a7.79 7.79 0 017.794-7.794c.684 0 1.299.068 1.914.273" stroke="#fff" stroke-width="2" stroke-miterlimit="10"/></svg>