<svg width="60" height="60" fill="none" xmlns="http://www.w3.org/2000/svg"><circle cx="30" cy="30" r="30" fill="#FF7931"/><path d="M33.889 14.846V25.41c-.251 1.03-1.882 1.803-3.826 1.803-1.945 0-3.575-.773-3.826-1.803V14.661c0-.065 0-.194.063-.258.313-.772 1.881-1.352 3.825-1.352 1.945 0 3.586.557 3.67 1.352 0 0 .094.314.094.443z" stroke="#fff" stroke-width="2" stroke-miterlimit="10"/><path d="M30 13.051c-.44 0-.753-.386-.753-.772v-1.61c0-.45.376-.772.752-.772.44 0 .753.386.753.773v1.609c0 .45-.314.772-.753.772z" fill="#fff"/><path d="M29.247 11.12s-.251 1.352-2.321 1.996h3.073l-.752-1.996zm1.505 0s.25 1.352 2.32 1.996H30l.753-1.996z" fill="#fff"/><path d="M32.07 27.02h-4.14v2.124h4.14V27.02z" fill="#fff" fill-opacity=".7"/><path d="M30 30.496c2.979 0 5.394-.346 5.394-.773 0-.426-2.415-.772-5.394-.772-2.98 0-5.394.346-5.394.772 0 .427 2.415.773 5.394.773zm-5.394-1.095v3.734m10.788-3.412v3.669m3.575.515c0 .708-4.014 1.867-8.97 1.867-4.954 0-8.968-1.094-8.968-1.867 0-.257 2.07-1.352 3.575-1.352 1.003.258 3.888.515 5.394.515 1.505 0 4.453-.257 5.394-.515 1.568.065 3.575 1.095 3.575 1.352z" stroke="#fff" stroke-width="2" stroke-miterlimit="10"/><path d="M35.394 35.324v5.728c0 .58-2.446 1.03-5.394 1.03s-5.394-.45-5.394-1.03v-5.728m1.505 6.243v5.793m7.778-5.793v5.793" stroke="#fff" stroke-width="2" stroke-miterlimit="10"/><path d="M31.004 49.485h-2.008c-.438 0-.815-.386-.815-.837v-6.566h3.575v6.566c.063.45-.313.837-.752.837z" stroke="#fff" stroke-width="2" stroke-miterlimit="10"/></svg>